<svg xmlns="http://www.w3.org/2000/svg" width="1200" height="700" viewBox="0 0 1200 700">
  <rect width="1200" height="700" fill="#f8fafc"/>
  <rect x="40" y="24" width="1120" height="80" rx="8" fill="#111827"/>
  <text x="76" y="76" fill="#fff" font-size="28" font-family="Inter, system-ui, Arial">Projeto A3 — Gerador de Avatares SVG</text>

  <!-- preview card -->
  <rect x="80" y="140" width="440" height="420" rx="12" fill="#ffffff" stroke="#e6e6e6"/>
  <text x="110" y="180" fill="#111827" font-size="18" font-family="Inter">Preview</text>

  <!-- avatar sample -->
  <g transform="translate(300,340)">
    <circle cx="0" cy="0" r="120" fill="#ffd86b" stroke="#f3c55a" stroke-width="6"/>
    <circle cx="-36" cy="-16" r="18" fill="#000"/>
    <circle cx="36" cy="-16" r="18" fill="#000"/>
    <path d="M -60 38 Q -20 80 60 38" fill="none" stroke="#000" stroke-linecap="round" stroke-width="8"/>
    <rect x="-140" y="-220" width="280" height="90" rx="18" fill="#bae6fd" opacity="0.18"/>
  </g>

  <!-- controls mock -->
  <rect x="560" y="140" width="520" height="120" rx="10" fill="#fff" stroke="#e6e6e6"/>
  <text x="580" y="172" fill="#111827" font-size="16">Identificador</text>
  <rect x="580" y="184" width="420" height="36" rx="8" fill="#f3f4f6"/>
  <text x="580" y="238" fill="#111827" font-size="16">Estilo: Rosto</text>
  <rect x="580" y="246" width="180" height="36" rx="8" fill="#f3f4f6"/>
  <rect x="780" y="246" width="120" height="36" rx="8" fill="#111827"/>
  <text x="806" y="272" fill="#fff" font-size="14">Gerar novo</text>

  <text x="80" y="590" fill="#6b7280" font-size="14">Exemplo de preview gerado pelo app com um rosto simples.</text>
</svg>
